<svg width="327" height="41" viewBox="0 0 327 41" fill="none" xmlns="http://www.w3.org/2000/svg">
<rect x="8.81461" y="5.65261" width="66.1854" height="30" fill="white"/>
<path d="M13.4773 16.6789C13.4773 15.8098 13.6433 14.9943 13.9754 14.2326C14.3074 13.4709 14.7566 12.8068 15.323 12.2404C15.8992 11.6643 16.5681 11.2102 17.3299 10.8781C18.0916 10.5461 18.907 10.3801 19.7762 10.3801H29.4148V14.5842H19.7762C19.4832 14.5842 19.2097 14.6379 18.9558 14.7453C18.7019 14.8527 18.4773 15.0041 18.282 15.1994C18.0965 15.385 17.95 15.6047 17.8426 15.8586C17.7351 16.1125 17.6814 16.3859 17.6814 16.6789C17.6814 16.9719 17.7351 17.2502 17.8426 17.5139C17.95 17.7678 18.0965 17.9924 18.282 18.1877C18.4773 18.3733 18.7019 18.5197 18.9558 18.6272C19.2097 18.7346 19.4832 18.7883 19.7762 18.7883H23.9803C24.8494 18.7883 25.6648 18.9543 26.4265 19.2863C27.198 19.6086 27.867 20.0578 28.4334 20.634C29.0096 21.2004 29.4588 21.8693 29.781 22.6408C30.1131 23.4025 30.2791 24.218 30.2791 25.0871C30.2791 25.9563 30.1131 26.7717 29.781 27.5334C29.4588 28.2951 29.0096 28.9641 28.4334 29.5402C27.867 30.1067 27.198 30.5559 26.4265 30.8879C25.6648 31.2199 24.8494 31.3859 23.9803 31.3859H14.6492V27.1818H23.9803C24.2732 27.1818 24.5467 27.1281 24.8006 27.0207C25.0545 26.9133 25.2742 26.7668 25.4597 26.5813C25.6551 26.3859 25.8064 26.1613 25.9138 25.9074C26.0213 25.6535 26.075 25.3801 26.075 25.0871C26.075 24.7942 26.0213 24.5207 25.9138 24.2668C25.8064 24.0129 25.6551 23.7932 25.4597 23.6076C25.2742 23.4123 25.0545 23.2609 24.8006 23.1535C24.5467 23.0461 24.2732 22.9924 23.9803 22.9924H19.7762C18.907 22.9924 18.0916 22.8264 17.3299 22.4943C16.5681 22.1623 15.8992 21.7131 15.323 21.1467C14.7566 20.5705 14.3074 19.9016 13.9754 19.1399C13.6433 18.3684 13.4773 17.5481 13.4773 16.6789ZM53.8924 31.3859H49.7029V16.3859C49.7029 16.093 49.6443 15.8195 49.5271 15.5656C49.4197 15.3117 49.2683 15.092 49.073 14.9065C48.8875 14.7111 48.6678 14.5598 48.4138 14.4524C48.1599 14.3449 47.8865 14.2912 47.5935 14.2912C47.3006 14.2912 47.0271 14.3449 46.7732 14.4524C46.5193 14.5598 46.2947 14.7111 46.0994 14.9065C45.9138 15.092 45.7674 15.3117 45.6599 15.5656C45.5525 15.8195 45.4988 16.093 45.4988 16.3859V31.3859H41.2947V16.3859C41.2947 16.093 41.241 15.8195 41.1336 15.5656C41.0262 15.3117 40.8748 15.092 40.6795 14.9065C40.4939 14.7111 40.2742 14.5598 40.0203 14.4524C39.7664 14.3449 39.493 14.2912 39.2 14.2912C38.907 14.2912 38.6336 14.3449 38.3797 14.4524C38.1258 14.5598 37.9012 14.7111 37.7058 14.9065C37.5203 15.092 37.3738 15.3117 37.2664 15.5656C37.159 15.8195 37.1053 16.093 37.1053 16.3859V31.3859H32.9012V16.3859C32.9012 15.5168 33.0623 14.7014 33.3846 13.9397C33.7166 13.1682 34.1658 12.4992 34.7322 11.9328C35.3084 11.3567 35.9773 10.9074 36.739 10.5852C37.5105 10.2531 38.3308 10.0871 39.2 10.0871C39.9812 10.0871 40.7332 10.2287 41.4558 10.5119C42.1785 10.7854 42.8279 11.1858 43.4041 11.7131C43.9803 11.1858 44.6248 10.7854 45.3377 10.5119C46.0603 10.2287 46.8123 10.0871 47.5935 10.0871C48.4627 10.0871 49.2781 10.2531 50.0398 10.5852C50.8113 10.9074 51.4803 11.3567 52.0467 11.9328C52.6228 12.4992 53.0721 13.1682 53.3943 13.9397C53.7263 14.7014 53.8924 15.5168 53.8924 16.3859V31.3859ZM66.241 31.3859H62.0515V14.5842H55.7381V10.3801H72.5398V14.5842H66.241V31.3859Z" fill="#333F55"/>
<path d="M91.3631 31.3859H82.2224V27.4016H91.3631C91.6365 27.4016 91.8709 27.3039 92.0662 27.1086C92.2615 26.9133 92.3592 26.6789 92.3592 26.4055C92.3592 26.1223 92.2615 25.9367 92.0662 25.8488C91.8709 25.7609 91.6365 25.717 91.3631 25.717H87.2029C86.5096 25.717 85.8601 25.5852 85.2547 25.3215C84.6492 25.0578 84.1219 24.7014 83.6726 24.2522C83.2234 23.7932 82.867 23.2609 82.6033 22.6555C82.3494 22.05 82.2224 21.4006 82.2224 20.7072C82.2224 20.0139 82.3494 19.3645 82.6033 18.759C82.867 18.1535 83.2234 17.6262 83.6726 17.177C84.1219 16.7277 84.6492 16.3762 85.2547 16.1223C85.8601 15.8586 86.5096 15.7268 87.2029 15.7268H95.3035V19.7111H87.2029C86.9295 19.7111 86.6951 19.8088 86.4998 20.0041C86.3045 20.1994 86.2068 20.4338 86.2068 20.7072C86.2068 20.9904 86.3045 21.2346 86.4998 21.4397C86.6951 21.635 86.9295 21.7326 87.2029 21.7326H91.3631C92.0467 21.7326 92.6912 21.8498 93.2967 22.0842C93.9021 22.3088 94.4295 22.6262 94.8787 23.0363C95.3279 23.4465 95.6844 23.9397 95.948 24.5158C96.2117 25.092 96.3435 25.7219 96.3435 26.4055C96.3435 27.0988 96.2117 27.7483 95.948 28.3537C95.6844 28.9494 95.3279 29.4768 94.8787 29.9358C94.4295 30.385 93.9021 30.7414 93.2967 31.0051C92.6912 31.259 92.0467 31.3859 91.3631 31.3859ZM118.433 31.3859H114.449V21.425C114.449 21.1516 114.395 20.8928 114.288 20.6486C114.19 20.4045 114.049 20.1897 113.863 20.0041C113.678 19.8186 113.463 19.677 113.219 19.5793C112.974 19.4719 112.716 19.4182 112.442 19.4182C112.169 19.4182 111.91 19.4719 111.666 19.5793C111.431 19.677 111.221 19.8186 111.036 20.0041C110.86 20.1897 110.719 20.4045 110.611 20.6486C110.513 20.8928 110.465 21.1516 110.465 21.425V31.3859H106.466V21.425C106.466 21.1516 106.412 20.8928 106.304 20.6486C106.207 20.4045 106.065 20.1897 105.88 20.0041C105.694 19.8186 105.479 19.677 105.235 19.5793C104.991 19.4719 104.732 19.4182 104.459 19.4182C104.185 19.4182 103.927 19.4719 103.682 19.5793C103.448 19.677 103.238 19.8186 103.053 20.0041C102.877 20.1897 102.735 20.4045 102.628 20.6486C102.53 20.8928 102.481 21.1516 102.481 21.425V31.3859H98.4822V15.6975H99.449L100.533 16.8986C101.09 16.4299 101.7 16.0686 102.364 15.8147C103.038 15.551 103.736 15.4192 104.459 15.4192C105.191 15.4192 105.904 15.5559 106.597 15.8293C107.301 16.1027 107.916 16.5764 108.443 17.2502C108.687 16.9182 108.966 16.635 109.278 16.4006C109.591 16.1662 109.918 15.9758 110.26 15.8293C110.611 15.6828 110.972 15.5803 111.344 15.5217C111.715 15.4533 112.081 15.4192 112.442 15.4192C113.272 15.4192 114.049 15.5754 114.771 15.8879C115.504 16.2004 116.138 16.6301 116.676 17.177C117.222 17.7141 117.652 18.3488 117.965 19.0813C118.277 19.8137 118.433 20.5949 118.433 21.425V31.3859ZM136.553 31.3859H135.587L134.034 29.2326C133.653 29.5744 133.248 29.8967 132.818 30.1994C132.398 30.4924 131.954 30.7512 131.485 30.9758C131.016 31.1906 130.533 31.3615 130.035 31.4885C129.547 31.6154 129.049 31.6789 128.541 31.6789C127.437 31.6789 126.397 31.4934 125.421 31.1223C124.454 30.7512 123.604 30.2141 122.872 29.5109C122.149 28.7981 121.578 27.9289 121.158 26.9035C120.738 25.8781 120.528 24.7111 120.528 23.4025C120.528 22.1818 120.738 21.0637 121.158 20.0481C121.578 19.0227 122.149 18.1438 122.872 17.4113C123.604 16.6789 124.454 16.1125 125.421 15.7121C126.397 15.302 127.437 15.0969 128.541 15.0969C129.049 15.0969 129.552 15.1604 130.05 15.2873C130.548 15.4143 131.031 15.59 131.5 15.8147C131.969 16.0393 132.413 16.3029 132.833 16.6057C133.262 16.9084 133.663 17.2356 134.034 17.5871L135.587 15.7268H136.553V31.3859ZM132.525 23.4025C132.525 22.8557 132.418 22.3283 132.203 21.8205C131.998 21.3029 131.715 20.8488 131.353 20.4582C130.992 20.0578 130.567 19.7404 130.079 19.5061C129.6 19.2619 129.088 19.1399 128.541 19.1399C127.994 19.1399 127.476 19.2326 126.988 19.4182C126.51 19.6037 126.09 19.8772 125.728 20.2385C125.377 20.5998 125.098 21.049 124.893 21.5861C124.688 22.1135 124.586 22.719 124.586 23.4025C124.586 24.0861 124.688 24.6965 124.893 25.2336C125.098 25.7609 125.377 26.2053 125.728 26.5666C126.09 26.9279 126.51 27.2014 126.988 27.3869C127.476 27.5725 127.994 27.6652 128.541 27.6652C129.088 27.6652 129.6 27.5481 130.079 27.3137C130.567 27.0695 130.992 26.7522 131.353 26.3615C131.715 25.9611 131.998 25.507 132.203 24.9992C132.418 24.4817 132.525 23.9494 132.525 23.4025ZM143.614 31.3859H139.615V15.6975H140.582L141.9 17.5578C142.545 16.9719 143.277 16.5227 144.097 16.2102C144.918 15.8879 145.767 15.7268 146.646 15.7268H150.177V19.7111H146.646C146.226 19.7111 145.831 19.7893 145.46 19.9455C145.089 20.1018 144.766 20.3166 144.493 20.59C144.22 20.8635 144.005 21.1858 143.848 21.5568C143.692 21.9279 143.614 22.3234 143.614 22.7434V31.3859ZM159.903 31.3859C158.936 31.3859 158.028 31.2053 157.178 30.844C156.329 30.4729 155.582 29.9699 154.937 29.3352C154.303 28.6906 153.8 27.9436 153.428 27.094C153.067 26.2443 152.887 25.3361 152.887 24.3693V19.7111H150.938V15.7268H152.887V9.45724H156.871V15.7268H162.935V19.7111H156.871V24.3693C156.871 24.7893 156.949 25.1848 157.105 25.5559C157.262 25.9172 157.476 26.2346 157.75 26.508C158.023 26.7815 158.345 27.0012 158.717 27.1672C159.088 27.3234 159.483 27.4016 159.903 27.4016H162.935V31.3859H159.903ZM181.466 31.3859C180.499 31.3859 179.591 31.2053 178.741 30.844C177.891 30.4729 177.144 29.9699 176.5 29.3352C175.865 28.6906 175.362 27.9436 174.991 27.094C174.63 26.2443 174.449 25.3361 174.449 24.3693V19.7111H172.501V15.7268H174.449V9.45724H178.433V15.7268H184.498V19.7111H178.433V24.3693C178.433 24.7893 178.512 25.1848 178.668 25.5559C178.824 25.9172 179.039 26.2346 179.312 26.508C179.586 26.7815 179.908 27.0012 180.279 27.1672C180.65 27.3234 181.046 27.4016 181.466 27.4016H184.498V31.3859H181.466ZM201.915 23.4025C201.915 24.5744 201.705 25.6682 201.285 26.6838C200.865 27.6897 200.294 28.5637 199.571 29.3059C198.848 30.0383 197.999 30.6193 197.022 31.049C196.055 31.469 195.015 31.6789 193.902 31.6789C192.799 31.6789 191.759 31.469 190.782 31.049C189.815 30.6193 188.966 30.0383 188.233 29.3059C187.511 28.5637 186.939 27.6897 186.519 26.6838C186.099 25.6682 185.889 24.5744 185.889 23.4025C185.889 22.2111 186.099 21.1076 186.519 20.092C186.939 19.0764 187.511 18.2024 188.233 17.4699C188.966 16.7277 189.815 16.1467 190.782 15.7268C191.759 15.3068 192.799 15.0969 193.902 15.0969C195.015 15.0969 196.055 15.2971 197.022 15.6975C197.999 16.0881 198.848 16.6496 199.571 17.382C200.294 18.1047 200.865 18.9787 201.285 20.0041C201.705 21.0197 201.915 22.1525 201.915 23.4025ZM197.887 23.4025C197.887 22.758 197.779 22.177 197.564 21.6594C197.359 21.132 197.076 20.6828 196.715 20.3117C196.353 19.9309 195.928 19.6428 195.44 19.4475C194.962 19.2424 194.449 19.1399 193.902 19.1399C193.355 19.1399 192.838 19.2424 192.349 19.4475C191.871 19.6428 191.451 19.9309 191.09 20.3117C190.738 20.6828 190.46 21.132 190.255 21.6594C190.05 22.177 189.947 22.758 189.947 23.4025C189.947 24.008 190.05 24.5695 190.255 25.0871C190.46 25.6047 190.738 26.0539 191.09 26.4348C191.451 26.8156 191.871 27.1184 192.349 27.343C192.838 27.5578 193.355 27.6652 193.902 27.6652C194.449 27.6652 194.962 27.5627 195.44 27.3576C195.928 27.1525 196.353 26.8645 196.715 26.4934C197.076 26.1223 197.359 25.6731 197.564 25.1457C197.779 24.6184 197.887 24.0373 197.887 23.4025ZM208.155 31.3859H204.127V9.45724H208.155V23.2854L214.117 15.7268H218.717L213.516 22.26L218.717 31.3859H214.117L210.938 25.6877L208.155 29.3791V31.3859ZM226.041 27.5481C226.197 27.5969 226.353 27.6311 226.51 27.6506C226.666 27.6604 226.822 27.6652 226.978 27.6652C227.369 27.6652 227.745 27.6115 228.106 27.5041C228.468 27.3967 228.804 27.2453 229.117 27.05C229.439 26.8449 229.722 26.6008 229.967 26.3176C230.22 26.0246 230.426 25.7024 230.582 25.3508L233.512 28.2951C233.14 28.8225 232.711 29.2961 232.222 29.716C231.744 30.1359 231.221 30.4924 230.655 30.7854C230.098 31.0783 229.508 31.2981 228.883 31.4445C228.267 31.6008 227.633 31.6789 226.978 31.6789C225.875 31.6789 224.835 31.4738 223.858 31.0637C222.891 30.6535 222.042 30.0822 221.309 29.3498C220.587 28.6174 220.015 27.7483 219.595 26.7424C219.176 25.7268 218.966 24.6135 218.966 23.4025C218.966 22.1623 219.176 21.0295 219.595 20.0041C220.015 18.9787 220.587 18.1047 221.309 17.382C222.042 16.6594 222.891 16.0979 223.858 15.6975C224.835 15.2971 225.875 15.0969 226.978 15.0969C227.633 15.0969 228.272 15.175 228.897 15.3313C229.522 15.4875 230.113 15.7121 230.67 16.0051C231.236 16.2981 231.763 16.6594 232.252 17.0891C232.74 17.509 233.17 17.9826 233.541 18.51L226.041 27.5481ZM228.092 19.301C227.906 19.2326 227.72 19.1887 227.535 19.1692C227.359 19.1496 227.174 19.1399 226.978 19.1399C226.431 19.1399 225.914 19.2424 225.426 19.4475C224.947 19.6428 224.527 19.926 224.166 20.2971C223.814 20.6682 223.536 21.1174 223.331 21.6447C223.126 22.1623 223.023 22.7483 223.023 23.4025C223.023 23.549 223.028 23.715 223.038 23.9006C223.057 24.0861 223.082 24.2766 223.111 24.4719C223.15 24.6574 223.194 24.8381 223.243 25.0139C223.292 25.1897 223.355 25.3459 223.433 25.4826L228.092 19.301ZM239.561 31.3859H235.562V15.6975H236.529L237.847 17.2209C238.492 16.635 239.22 16.1858 240.03 15.8733C240.85 15.551 241.705 15.3899 242.594 15.3899C243.551 15.3899 244.454 15.5754 245.303 15.9465C246.153 16.3078 246.895 16.8108 247.53 17.4553C248.165 18.09 248.663 18.8371 249.024 19.6965C249.395 20.5461 249.581 21.4543 249.581 22.4211V31.3859H245.582V22.4211C245.582 22.0109 245.504 21.6252 245.347 21.2639C245.191 20.8928 244.976 20.5705 244.703 20.2971C244.429 20.0236 244.112 19.8088 243.751 19.6525C243.389 19.4963 243.004 19.4182 242.594 19.4182C242.174 19.4182 241.778 19.4963 241.407 19.6525C241.036 19.8088 240.714 20.0236 240.44 20.2971C240.167 20.5705 239.952 20.8928 239.796 21.2639C239.639 21.6252 239.561 22.0109 239.561 22.4211V31.3859ZM268.712 31.3859C267.745 31.3859 266.837 31.2053 265.987 30.844C265.137 30.4729 264.39 29.9699 263.746 29.3352C263.111 28.6906 262.608 27.9436 262.237 27.094C261.876 26.2443 261.695 25.3361 261.695 24.3693V19.7111H259.747V15.7268H261.695V9.45724H265.679V15.7268H271.744V19.7111H265.679V24.3693C265.679 24.7893 265.758 25.1848 265.914 25.5559C266.07 25.9172 266.285 26.2346 266.558 26.508C266.832 26.7815 267.154 27.0012 267.525 27.1672C267.896 27.3234 268.292 27.4016 268.712 27.4016H271.744V31.3859H268.712ZM289.161 23.4025C289.161 24.5744 288.951 25.6682 288.531 26.6838C288.111 27.6897 287.54 28.5637 286.817 29.3059C286.094 30.0383 285.245 30.6193 284.268 31.049C283.302 31.469 282.261 31.6789 281.148 31.6789C280.045 31.6789 279.005 31.469 278.028 31.049C277.061 30.6193 276.212 30.0383 275.479 29.3059C274.757 28.5637 274.185 27.6897 273.765 26.6838C273.345 25.6682 273.136 24.5744 273.136 23.4025C273.136 22.2111 273.345 21.1076 273.765 20.092C274.185 19.0764 274.757 18.2024 275.479 17.4699C276.212 16.7277 277.061 16.1467 278.028 15.7268C279.005 15.3068 280.045 15.0969 281.148 15.0969C282.261 15.0969 283.302 15.2971 284.268 15.6975C285.245 16.0881 286.094 16.6496 286.817 17.382C287.54 18.1047 288.111 18.9787 288.531 20.0041C288.951 21.0197 289.161 22.1525 289.161 23.4025ZM285.133 23.4025C285.133 22.758 285.025 22.177 284.81 21.6594C284.605 21.132 284.322 20.6828 283.961 20.3117C283.599 19.9309 283.175 19.6428 282.686 19.4475C282.208 19.2424 281.695 19.1399 281.148 19.1399C280.601 19.1399 280.084 19.2424 279.595 19.4475C279.117 19.6428 278.697 19.9309 278.336 20.3117C277.984 20.6828 277.706 21.132 277.501 21.6594C277.296 22.177 277.193 22.758 277.193 23.4025C277.193 24.008 277.296 24.5695 277.501 25.0871C277.706 25.6047 277.984 26.0539 278.336 26.4348C278.697 26.8156 279.117 27.1184 279.595 27.343C280.084 27.5578 280.601 27.6652 281.148 27.6652C281.695 27.6652 282.208 27.5627 282.686 27.3576C283.175 27.1525 283.599 26.8645 283.961 26.4934C284.322 26.1223 284.605 25.6731 284.81 25.1457C285.025 24.6184 285.133 24.0373 285.133 23.4025ZM306.534 23.4025C306.534 24.5744 306.324 25.6682 305.904 26.6838C305.484 27.6897 304.913 28.5637 304.19 29.3059C303.468 30.0383 302.618 30.6193 301.641 31.049C300.675 31.469 299.635 31.6789 298.521 31.6789C297.418 31.6789 296.378 31.469 295.401 31.049C294.434 30.6193 293.585 30.0383 292.852 29.3059C292.13 28.5637 291.558 27.6897 291.138 26.6838C290.719 25.6682 290.509 24.5744 290.509 23.4025C290.509 22.2111 290.719 21.1076 291.138 20.092C291.558 19.0764 292.13 18.2024 292.852 17.4699C293.585 16.7277 294.434 16.1467 295.401 15.7268C296.378 15.3068 297.418 15.0969 298.521 15.0969C299.635 15.0969 300.675 15.2971 301.641 15.6975C302.618 16.0881 303.468 16.6496 304.19 17.382C304.913 18.1047 305.484 18.9787 305.904 20.0041C306.324 21.0197 306.534 22.1525 306.534 23.4025ZM302.506 23.4025C302.506 22.758 302.398 22.177 302.183 21.6594C301.978 21.132 301.695 20.6828 301.334 20.3117C300.972 19.9309 300.548 19.6428 300.059 19.4475C299.581 19.2424 299.068 19.1399 298.521 19.1399C297.974 19.1399 297.457 19.2424 296.969 19.4475C296.49 19.6428 296.07 19.9309 295.709 20.3117C295.357 20.6828 295.079 21.132 294.874 21.6594C294.669 22.177 294.566 22.758 294.566 23.4025C294.566 24.008 294.669 24.5695 294.874 25.0871C295.079 25.6047 295.357 26.0539 295.709 26.4348C296.07 26.8156 296.49 27.1184 296.969 27.343C297.457 27.5578 297.974 27.6652 298.521 27.6652C299.068 27.6652 299.581 27.5627 300.059 27.3576C300.548 27.1525 300.972 26.8645 301.334 26.4934C301.695 26.1223 301.978 25.6731 302.183 25.1457C302.398 24.6184 302.506 24.0373 302.506 23.4025ZM312.774 31.3859H308.746V9.45724H312.774V31.3859Z" fill="white"/>
</svg>
