<svg width="351" height="41" viewBox="0 0 351 41" fill="none" xmlns="http://www.w3.org/2000/svg">
<rect x="9.46574" y="5.45416" width="80" height="30" fill="white"/>
<path d="M13.3568 25.8115C13.3568 25.2354 13.5277 24.8252 13.8695 24.5811C14.2113 24.3271 14.5433 24.2002 14.8656 24.2002H16.6087C17.4876 24.2002 18.1566 24.6787 18.6156 25.6357C19.0745 26.5928 20.1048 27.0713 21.7064 27.0713L26.8333 27.1738C28.5521 27.1738 29.4115 26.6123 29.4115 25.4893C29.4115 24.6396 28.3617 23.9707 26.262 23.4824C25.3245 23.2578 24.2894 23.0381 23.1566 22.8232C22.0238 22.5986 20.8958 22.3203 19.7728 21.9883C18.6595 21.6562 17.6341 21.2656 16.6966 20.8164C15.7591 20.3672 14.9974 19.752 14.4115 18.9707C13.8353 18.1797 13.5472 17.252 13.5472 16.1875C13.5472 14.2246 14.2454 12.7158 15.6419 11.6611C17.0384 10.5967 19.4408 10.0645 22.849 10.0645L26.5697 10.1523C28.5716 10.1523 30.3734 10.6699 31.9749 11.7051C33.5863 12.7305 34.3919 14.0146 34.3919 15.5576C34.3919 16.1338 34.221 16.5488 33.8792 16.8027C33.5374 17.0566 33.2103 17.1836 32.8978 17.1836H31.1546C30.2757 17.1836 29.6068 16.7051 29.1478 15.748C28.6888 14.7812 27.6585 14.2979 26.057 14.2979L21.6478 14.21C19.929 14.21 19.0697 14.7715 19.0697 15.8945C19.0697 16.5098 19.6117 17.0127 20.6956 17.4033C21.7894 17.7939 23.1077 18.1406 24.6507 18.4434C26.2035 18.7363 27.7611 19.0928 29.3236 19.5127C30.8861 19.9326 32.2093 20.626 33.2933 21.5928C34.387 22.5498 34.9339 23.7461 34.9339 25.1816C34.9339 27.1445 34.2308 28.6582 32.8245 29.7227C31.4281 30.7773 29.0306 31.3047 25.6322 31.3047L21.1937 31.2168C19.1917 31.2168 17.3851 30.7041 15.7738 29.6787C14.1624 28.6436 13.3568 27.3545 13.3568 25.8115ZM36.4369 29.7812V11.6025C36.4369 11.2021 36.5687 10.8652 36.8324 10.5918C37.096 10.3184 37.4183 10.1816 37.7992 10.1816H43.7611C44.1419 10.1816 44.5033 10.3184 44.8451 10.5918C45.1869 10.8652 45.4163 11.1924 45.5335 11.5732L49.8548 24.083L54.1761 11.5732C54.2933 11.1924 54.5228 10.8652 54.8646 10.5918C55.2064 10.3184 55.5677 10.1816 55.9486 10.1816H61.9105C62.2913 10.1816 62.6087 10.3184 62.8626 10.5918C63.1263 10.8652 63.2581 11.2021 63.2581 11.6025V29.7812C63.2581 30.1816 63.1214 30.5186 62.848 30.792C62.5843 31.0557 62.262 31.1875 61.8812 31.1875H59.2445C58.8636 31.1875 58.5365 31.0557 58.263 30.792C57.9994 30.5186 57.8675 30.1816 57.8675 29.7812V15.4697L52.6966 29.8691C52.5599 30.2305 52.3206 30.543 51.9788 30.8066C51.637 31.0605 51.2757 31.1875 50.8949 31.1875H48.8001C48.4193 31.1875 48.0579 31.0605 47.7161 30.8066C47.3841 30.543 47.1449 30.2305 46.9984 29.8691L41.8421 15.4697V29.7812C41.8421 30.1816 41.7054 30.5186 41.432 30.792C41.1683 31.0557 40.846 31.1875 40.4652 31.1875H37.8285C37.4476 31.1875 37.1204 31.0557 36.847 30.792C36.5736 30.5186 36.4369 30.1816 36.4369 29.7812ZM64.1605 12.9502V11.5732C64.1605 11.1729 64.2923 10.8408 64.556 10.5771C64.8197 10.3135 65.1517 10.1816 65.5521 10.1816H84.141C84.5413 10.1816 84.8734 10.3135 85.137 10.5771C85.4007 10.8408 85.5326 11.1729 85.5326 11.5732V12.9502C85.5326 13.3506 85.4007 13.6826 85.137 13.9463C84.8734 14.2002 84.5413 14.3271 84.141 14.3271H77.6077V29.8398C77.6077 30.2207 77.471 30.543 77.1976 30.8066C76.9339 31.0605 76.6117 31.1875 76.2308 31.1875H73.4622C73.0814 31.1875 72.7542 31.0605 72.4808 30.8066C72.2171 30.543 72.0853 30.2207 72.0853 29.8398V14.3271H65.5521C65.1517 14.3271 64.8197 14.2002 64.556 13.9463C64.2923 13.6826 64.1605 13.3506 64.1605 12.9502Z" fill="#333F55"/>
<path d="M94.2513 19.5713C94.2513 16.417 96.7952 14.8398 101.883 14.8398C107.235 14.8398 109.91 16.2412 109.91 19.0439C109.91 19.2979 109.827 19.5127 109.661 19.6885C109.495 19.8545 109.281 19.9375 109.017 19.9375H106.834C106.131 19.9375 105.54 19.6445 105.062 19.0586C104.583 18.4629 103.641 18.165 102.235 18.165C100.301 18.165 99.3343 18.6338 99.3343 19.5713C99.3343 20.0107 99.7103 20.377 100.462 20.6699C101.224 20.9629 102.147 21.2217 103.231 21.4463C104.325 21.6611 105.413 21.9395 106.497 22.2812C107.581 22.623 108.499 23.1699 109.251 23.9219C110.013 24.6641 110.394 25.6064 110.394 26.749C110.394 29.9033 107.708 31.4805 102.337 31.4805C96.9661 31.4805 94.2806 30.084 94.2806 27.291C94.2806 27.0273 94.3636 26.8125 94.5296 26.6465C94.7054 26.4707 94.9251 26.3828 95.1888 26.3828H97.3714C98.0745 26.3828 98.6654 26.6807 99.1439 27.2764C99.6224 27.8623 100.565 28.1553 101.971 28.1553C104.207 28.1553 105.326 27.6865 105.326 26.749C105.326 26.3096 104.945 25.9434 104.183 25.6504C103.431 25.3574 102.508 25.0986 101.414 24.874C100.321 24.6396 99.2318 24.3564 98.1478 24.0244C97.0736 23.6826 96.1556 23.1357 95.3939 22.3838C94.6322 21.6318 94.2513 20.6943 94.2513 19.5713ZM111.618 30.2939V16.041C111.618 15.7773 111.701 15.5625 111.868 15.3965C112.043 15.2207 112.258 15.1328 112.512 15.1328H115.793C116.057 15.1328 116.272 15.2207 116.438 15.3965C116.604 15.5625 116.687 15.7773 116.687 16.041V16.9639C117.39 16.2803 118.078 15.7578 118.752 15.3965C119.436 15.0254 120.256 14.8398 121.213 14.8398C123.489 14.8398 125.212 15.7773 126.384 17.6523C128.201 15.7676 130.061 14.8301 131.965 14.8398C133.879 14.8398 135.388 15.416 136.492 16.5684C137.605 17.7109 138.161 19.4834 138.161 21.8857V30.2939C138.161 30.5576 138.078 30.7725 137.912 30.9385C137.746 31.1045 137.532 31.1875 137.268 31.1875H134.001C133.738 31.1875 133.518 31.1045 133.342 30.9385C133.176 30.7627 133.093 30.5479 133.093 30.2939V21.8857C133.093 19.542 132.243 18.375 130.544 18.3848C129.509 18.3848 128.44 19.1318 127.336 20.626C127.395 21.0459 127.424 21.4658 127.424 21.8857V30.2939C127.424 30.5576 127.336 30.7725 127.16 30.9385C126.994 31.1045 126.785 31.1875 126.531 31.1875H123.264C123 31.1875 122.781 31.1045 122.605 30.9385C122.439 30.7627 122.356 30.5479 122.356 30.2939V21.8857C122.356 19.542 121.506 18.375 119.807 18.3848C118.723 18.3848 117.683 19.083 116.687 20.4795V30.2939C116.687 30.5576 116.599 30.7725 116.423 30.9385C116.257 31.1045 116.047 31.1875 115.793 31.1875H112.512C112.248 31.1875 112.034 31.1045 111.868 30.9385C111.701 30.7725 111.618 30.5576 111.618 30.2939ZM141.29 30.1328C140.001 29.2344 139.357 27.9648 139.357 26.3242C139.357 24.6836 140.001 23.4238 141.29 22.5449C142.589 21.666 144.259 21.2266 146.3 21.2266H151.149C151.149 20.084 150.91 19.2881 150.431 18.8389C149.952 18.3896 149.113 18.165 147.911 18.165C146.72 18.165 145.88 18.4629 145.392 19.0586C144.913 19.6445 144.323 19.9375 143.619 19.9375H141.437C141.173 19.9375 140.953 19.8545 140.778 19.6885C140.612 19.5127 140.529 19.2979 140.529 19.0439C140.529 16.2412 143.19 14.8398 148.512 14.8398C150.836 14.8398 152.701 15.3623 154.108 16.4072C155.514 17.4424 156.217 19.0488 156.217 21.2266V30.2939C156.217 30.5576 156.134 30.7725 155.968 30.9385C155.802 31.1045 155.587 31.1875 155.324 31.1875H152.496C152.233 31.1875 152.018 31.1045 151.852 30.9385C151.686 30.7627 151.603 30.5479 151.603 30.2939V29.8398C150.06 30.9434 148.278 31.4902 146.256 31.4805C144.244 31.4805 142.589 31.0312 141.29 30.1328ZM146.652 24.5518C145.968 24.5518 145.426 24.7178 145.026 25.0498C144.635 25.3818 144.44 25.8115 144.44 26.3389C144.44 26.8662 144.645 27.3008 145.055 27.6426C145.465 27.9844 146.046 28.1553 146.798 28.1553C148.302 28.1553 149.752 27.7158 151.149 26.8369V24.5518H146.652ZM169.439 18.8535L167.183 18.7656C165.865 18.7656 164.605 19.4883 163.404 20.9336V30.2939C163.404 30.5576 163.316 30.7725 163.14 30.9385C162.974 31.1045 162.764 31.1875 162.51 31.1875H159.229C158.965 31.1875 158.75 31.1045 158.584 30.9385C158.418 30.7725 158.335 30.5576 158.335 30.2939V16.041C158.335 15.7773 158.418 15.5625 158.584 15.3965C158.76 15.2207 158.975 15.1328 159.229 15.1328H162.51C162.774 15.1328 162.989 15.2207 163.155 15.3965C163.321 15.5625 163.404 15.7773 163.404 16.041V16.9639C164.4 16.2412 165.357 15.709 166.275 15.3672C167.202 15.0156 168.413 14.8398 169.908 14.8398C170.171 14.8398 170.386 14.9277 170.552 15.1035C170.728 15.2695 170.816 15.4795 170.816 15.7334V17.96C170.816 18.2236 170.728 18.4385 170.552 18.6045C170.386 18.7705 170.171 18.8535 169.908 18.8535H169.439ZM179.072 28.0088L181.078 27.833H181.62C181.884 27.833 182.099 27.916 182.265 28.082C182.441 28.248 182.529 28.4629 182.529 28.7266V30.2939C182.529 30.5088 182.441 30.7041 182.265 30.8799C182.099 31.0459 181.884 31.1484 181.62 31.1875C180.624 31.3828 179.326 31.4805 177.724 31.4805C173.525 31.4805 171.425 29.2832 171.425 24.8887V11.0898C171.425 10.8262 171.508 10.6113 171.674 10.4453C171.85 10.2695 172.065 10.1816 172.319 10.1816H175.6C175.854 10.1816 176.064 10.2695 176.23 10.4453C176.406 10.6113 176.493 10.8262 176.493 11.0898V15.9824H180.58C180.834 15.9824 181.044 16.0654 181.21 16.2314C181.386 16.3975 181.474 16.6123 181.474 16.876V18.6191C181.474 18.8828 181.386 19.0977 181.21 19.2637C181.044 19.4297 180.834 19.5127 180.58 19.5127H176.493V24.8887C176.493 25.8848 176.728 26.6562 177.197 27.2031C177.665 27.7402 178.29 28.0088 179.072 28.0088ZM200.095 28.0088L202.102 27.833H202.644C202.908 27.833 203.122 27.916 203.288 28.082C203.464 28.248 203.552 28.4629 203.552 28.7266V30.2939C203.552 30.5088 203.464 30.7041 203.288 30.8799C203.122 31.0459 202.908 31.1484 202.644 31.1875C201.648 31.3828 200.349 31.4805 198.747 31.4805C194.548 31.4805 192.449 29.2832 192.449 24.8887V11.0898C192.449 10.8262 192.532 10.6113 192.698 10.4453C192.873 10.2695 193.088 10.1816 193.342 10.1816H196.623C196.877 10.1816 197.087 10.2695 197.253 10.4453C197.429 10.6113 197.517 10.8262 197.517 11.0898V15.9824H201.604C201.858 15.9824 202.068 16.0654 202.234 16.2314C202.41 16.3975 202.497 16.6123 202.497 16.876V18.6191C202.497 18.8828 202.41 19.0977 202.234 19.2637C202.068 19.4297 201.858 19.5127 201.604 19.5127H197.517V24.8887C197.517 25.8848 197.751 26.6562 198.22 27.2031C198.689 27.7402 199.314 28.0088 200.095 28.0088ZM205.685 29.3711C204.161 27.9648 203.4 25.8945 203.4 23.1602C203.4 20.416 204.161 18.3457 205.685 16.9492C207.208 15.543 209.396 14.8398 212.247 14.8398C215.109 14.8398 217.301 15.543 218.825 16.9492C220.348 18.3457 221.11 20.416 221.11 23.1602C221.11 25.8945 220.348 27.9648 218.825 29.3711C217.301 30.7773 215.109 31.4805 212.247 31.4805C209.396 31.4805 207.208 30.7773 205.685 29.3711ZM209.391 19.3516C208.785 20.1426 208.483 21.4072 208.483 23.1455C208.483 24.8838 208.785 26.1533 209.391 26.9541C209.996 27.7549 210.949 28.1553 212.247 28.1553C213.556 28.1553 214.513 27.7549 215.118 26.9541C215.734 26.1533 216.041 24.8838 216.041 23.1455C216.041 21.4072 215.734 20.1426 215.118 19.3516C214.513 18.5605 213.556 18.165 212.247 18.165C210.949 18.165 209.996 18.5605 209.391 19.3516ZM238.506 30.543C238.506 30.9727 238.252 31.1875 237.744 31.1875H234.976C234.038 31.1875 233.291 30.7285 232.735 29.8105L230.874 26.7783C230.074 25.4795 228.911 24.8301 227.388 24.8301V30.2939C227.388 30.5576 227.3 30.7725 227.124 30.9385C226.958 31.1045 226.748 31.1875 226.494 31.1875H223.213C222.95 31.1875 222.735 31.1045 222.569 30.9385C222.403 30.7725 222.32 30.5576 222.32 30.2939V11.0898C222.32 10.8262 222.403 10.6113 222.569 10.4453C222.744 10.2695 222.959 10.1816 223.213 10.1816H226.494C226.758 10.1816 226.973 10.2695 227.139 10.4453C227.305 10.6113 227.388 10.8262 227.388 11.0898V21.4902C229.087 21.4902 230.249 20.8311 230.874 19.5127L232.281 16.5244C232.476 16.1045 232.764 15.7676 233.145 15.5137C233.526 15.2598 233.936 15.1328 234.375 15.1328H237.144C237.632 15.1328 237.876 15.3232 237.876 15.7041C237.876 15.9189 237.798 16.1924 237.642 16.5244L235.752 20.5088C235.43 21.1729 234.991 21.7441 234.434 22.2227C233.877 22.7012 233.277 23.0088 232.632 23.1455C233.833 23.5068 234.873 24.3857 235.752 25.7822L238.243 29.8105C238.409 30.0938 238.496 30.3379 238.506 30.543ZM240.185 29.3418C238.681 27.916 237.929 25.8652 237.929 23.1895C237.929 20.5039 238.686 18.4434 240.2 17.0078C241.713 15.5625 243.813 14.8398 246.498 14.8398C249.184 14.8398 251.279 15.543 252.783 16.9492C254.286 18.3457 255.038 20.3525 255.038 22.9697V23.8047C255.038 24.0684 254.951 24.2881 254.775 24.4639C254.609 24.6299 254.394 24.7129 254.13 24.7129H243.1C243.198 25.9141 243.539 26.7881 244.125 27.335C244.721 27.8818 245.668 28.1553 246.967 28.1553C248.266 28.1553 249.155 27.8623 249.633 27.2764C250.112 26.6904 250.702 26.3926 251.406 26.3828H253.588C253.852 26.3828 254.067 26.4707 254.233 26.6465C254.409 26.8125 254.496 27.0273 254.496 27.291C254.496 30.0938 251.826 31.4902 246.484 31.4805C243.788 31.4805 241.689 30.7676 240.185 29.3418ZM243.071 21.6221H249.882C249.785 19.3174 248.652 18.165 246.484 18.165C244.326 18.165 243.188 19.3174 243.071 21.6221ZM256.234 30.2939V16.041C256.234 15.7773 256.317 15.5625 256.483 15.3965C256.659 15.2207 256.873 15.1328 257.127 15.1328H260.409C260.662 15.1328 260.872 15.2207 261.038 15.3965C261.214 15.5625 261.302 15.7773 261.302 16.041V16.9639C262.982 15.5479 264.769 14.8398 266.663 14.8398C268.568 14.8398 270.116 15.4209 271.307 16.583C272.498 17.7354 273.094 19.5029 273.094 21.8857V30.2939C273.094 30.5479 273.006 30.7627 272.83 30.9385C272.664 31.1045 272.45 31.1875 272.186 31.1875H268.919C268.665 31.1875 268.451 31.1045 268.275 30.9385C268.109 30.7627 268.026 30.5479 268.026 30.2939V21.8857C268.026 19.5518 267.093 18.3848 265.228 18.3848C264.007 18.3848 262.699 19.083 261.302 20.4795V30.2939C261.302 30.5479 261.214 30.7627 261.038 30.9385C260.872 31.1045 260.662 31.1875 260.409 31.1875H257.127C256.873 31.1875 256.659 31.1045 256.483 30.9385C256.317 30.7627 256.234 30.5479 256.234 30.2939ZM291.876 28.0088L293.883 27.833H294.425C294.689 27.833 294.904 27.916 295.07 28.082C295.245 28.248 295.333 28.4629 295.333 28.7266V30.2939C295.333 30.5088 295.245 30.7041 295.07 30.8799C294.904 31.0459 294.689 31.1484 294.425 31.1875C293.429 31.3828 292.13 31.4805 290.529 31.4805C286.329 31.4805 284.23 29.2832 284.23 24.8887V11.0898C284.23 10.8262 284.313 10.6113 284.479 10.4453C284.655 10.2695 284.869 10.1816 285.123 10.1816H288.405C288.659 10.1816 288.868 10.2695 289.035 10.4453C289.21 10.6113 289.298 10.8262 289.298 11.0898V15.9824H293.385C293.639 15.9824 293.849 16.0654 294.015 16.2314C294.191 16.3975 294.279 16.6123 294.279 16.876V18.6191C294.279 18.8828 294.191 19.0977 294.015 19.2637C293.849 19.4297 293.639 19.5127 293.385 19.5127H289.298V24.8887C289.298 25.8848 289.533 26.6562 290.001 27.2031C290.47 27.7402 291.095 28.0088 291.876 28.0088ZM297.466 29.3711C295.943 27.9648 295.181 25.8945 295.181 23.1602C295.181 20.416 295.943 18.3457 297.466 16.9492C298.99 15.543 301.177 14.8398 304.029 14.8398C306.89 14.8398 309.082 15.543 310.606 16.9492C312.129 18.3457 312.891 20.416 312.891 23.1602C312.891 25.8945 312.129 27.9648 310.606 29.3711C309.082 30.7773 306.89 31.4805 304.029 31.4805C301.177 31.4805 298.99 30.7773 297.466 29.3711ZM301.172 19.3516C300.567 20.1426 300.264 21.4072 300.264 23.1455C300.264 24.8838 300.567 26.1533 301.172 26.9541C301.778 27.7549 302.73 28.1553 304.029 28.1553C305.337 28.1553 306.294 27.7549 306.9 26.9541C307.515 26.1533 307.823 24.8838 307.823 23.1455C307.823 21.4072 307.515 20.1426 306.9 19.3516C306.294 18.5605 305.337 18.165 304.029 18.165C302.73 18.165 301.778 18.5605 301.172 19.3516ZM315.478 29.3711C313.954 27.9648 313.193 25.8945 313.193 23.1602C313.193 20.416 313.954 18.3457 315.478 16.9492C317.001 15.543 319.189 14.8398 322.04 14.8398C324.902 14.8398 327.094 15.543 328.618 16.9492C330.141 18.3457 330.903 20.416 330.903 23.1602C330.903 25.8945 330.141 27.9648 328.618 29.3711C327.094 30.7773 324.902 31.4805 322.04 31.4805C319.189 31.4805 317.001 30.7773 315.478 29.3711ZM319.184 19.3516C318.578 20.1426 318.276 21.4072 318.276 23.1455C318.276 24.8838 318.578 26.1533 319.184 26.9541C319.789 27.7549 320.742 28.1553 322.04 28.1553C323.349 28.1553 324.306 27.7549 324.911 26.9541C325.527 26.1533 325.834 24.8838 325.834 23.1455C325.834 21.4072 325.527 20.1426 324.911 19.3516C324.306 18.5605 323.349 18.165 322.04 18.165C320.742 18.165 319.789 18.5605 319.184 19.3516ZM332.113 30.2939V11.0898C332.113 10.8262 332.196 10.6113 332.362 10.4453C332.537 10.2695 332.752 10.1816 333.006 10.1816H336.287C336.541 10.1816 336.751 10.2695 336.917 10.4453C337.093 10.6113 337.181 10.8262 337.181 11.0898V30.2939C337.181 30.5479 337.093 30.7627 336.917 30.9385C336.751 31.1045 336.541 31.1875 336.287 31.1875H333.006C332.752 31.1875 332.537 31.1045 332.362 30.9385C332.196 30.7627 332.113 30.5479 332.113 30.2939Z" fill="white"/>
</svg>
