<svg width="224" height="224" viewBox="0 0 224 224" fill="none" xmlns="http://www.w3.org/2000/svg">
<path fill-rule="evenodd" clip-rule="evenodd" d="M224 197.871C224 212.236 214.723 223.888 203.268 223.888C191.827 223.888 182.537 212.25 182.537 197.871C182.537 183.521 203.268 154.033 203.268 154.033C203.268 154.033 224 183.521 224 197.871Z" fill="white"/>
<path fill-rule="evenodd" clip-rule="evenodd" d="M205.377 90.0104C188.44 73.0316 165.305 70.8671 140.258 70.5859V70.3892C140.258 62.8977 135.016 56.7976 128.536 56.7976H111.866V40.9432C121.818 39.5517 129.829 34.3372 133.146 27.4782C136.829 29.1086 141.861 30.1347 147.426 30.1347C158.685 30.1347 167.793 26.0024 167.793 20.8722C167.793 15.756 158.685 11.6097 147.426 11.6097C141.931 11.6097 136.983 12.6076 133.315 14.21C129.576 5.97352 119.049 0 106.511 0C94.2832 0 83.9666 5.65025 79.9749 13.5494C75.9972 11.8627 70.6 10.8226 64.6124 10.8226C52.3702 10.8226 42.4752 15.1657 42.4752 20.4927C42.4752 25.8337 52.3702 30.1487 64.6124 30.1487C70.5297 30.1487 75.8707 29.1227 79.8484 27.4782C82.8 33.6204 89.5466 38.3711 98.1063 40.3248V56.8117H81.6897C75.2383 56.8117 69.9956 62.9117 69.9956 70.4032V70.5438H19.9024C9.58574 70.5438 0 80.3966 0 90.7694C0 101.128 8.37699 111.346 18.6936 111.346H70.0378C70.1362 118.754 75.3085 124.741 81.7037 124.741H128.55C134.889 124.741 139.963 118.88 140.188 111.613C157.012 112.302 170.885 114.678 177.786 121.579C181.679 125.486 184.772 130.687 186.458 139.401H223.185C220.978 119.653 215.904 100.58 205.377 90.0104Z" fill="white"/>
</svg>
