<svg width="224" height="253" viewBox="0 0 224 253" fill="none" xmlns="http://www.w3.org/2000/svg">
<path d="M111.801 252.899C108.851 252.899 105.903 252.141 103.273 250.623L8.52835 195.921C3.26803 192.886 0 187.224 0 181.149V71.7498C0 65.6746 3.26803 60.0125 8.52835 56.9777L103.273 2.27821C108.536 -0.759402 115.069 -0.759402 120.333 2.27821L215.075 56.9777C220.335 60.0125 223.603 65.6746 223.603 71.7498V181.149C223.603 187.224 220.335 192.886 215.072 195.921L120.33 250.623C117.7 252.141 114.749 252.899 111.801 252.899ZM111.801 11.2365C110.795 11.2365 109.79 11.495 108.893 12.012L14.1484 66.7115C12.3556 67.7484 11.24 69.6789 11.24 71.7498V181.149C11.24 183.22 12.3556 185.15 14.1455 186.184L108.89 240.887C110.686 241.923 112.914 241.923 114.71 240.887L209.449 186.184C211.245 185.15 212.357 183.22 212.357 181.149V71.7498C212.357 69.6789 211.242 67.7484 209.449 66.7115L114.71 12.012C113.813 11.495 112.807 11.2365 111.801 11.2365Z" fill="white"/>
<path d="M80.5065 162.167C78.5985 162.167 76.7748 161.192 75.7323 159.512L48.7647 116.066V156.55C48.7647 159.655 46.247 162.17 43.1447 162.17C40.0425 162.17 37.5247 159.652 37.5247 156.55V96.3514C37.5247 93.8392 39.1883 91.6362 41.6049 90.9478C44.0158 90.2593 46.5954 91.254 47.9217 93.3896L74.8893 136.835V96.3514C74.8893 93.2463 77.4071 90.7314 80.5093 90.7314C83.6115 90.7314 86.1293 93.2491 86.1293 96.3514V156.547C86.1293 159.059 84.4658 161.265 82.0492 161.954C81.5378 162.097 81.0179 162.167 80.5065 162.167Z" fill="white"/>
<path d="M103.849 162.167C100.744 162.167 98.2292 159.649 98.2292 156.547V96.3514C98.2292 93.2463 100.747 90.7314 103.849 90.7314H127.788C130.893 90.7314 133.408 93.2491 133.408 96.3514C133.408 99.4536 130.89 101.971 127.788 101.971H109.469V156.547C109.469 159.649 106.951 162.167 103.849 162.167Z" fill="white"/>
<path d="M127.788 132.069H103.849C100.744 132.069 98.2292 129.552 98.2292 126.449C98.2292 123.347 100.747 120.829 103.849 120.829H127.788C130.893 120.829 133.408 123.347 133.408 126.449C133.408 129.552 130.89 132.069 127.788 132.069Z" fill="white"/>
<path d="M180.458 101.971H146.249C143.144 101.971 140.629 99.4536 140.629 96.3514C140.629 93.2491 143.147 90.7314 146.249 90.7314H180.461C183.566 90.7314 186.081 93.2491 186.081 96.3514C186.081 99.4536 183.563 101.971 180.458 101.971Z" fill="white"/>
<path d="M163.354 162.167C160.249 162.167 157.734 159.649 157.734 156.547V96.3514C157.734 93.2463 160.251 90.7314 163.354 90.7314C166.456 90.7314 168.974 93.2491 168.974 96.3514V156.547C168.974 159.649 166.456 162.167 163.354 162.167Z" fill="white"/>
</svg>
