<svg width="153" height="150" viewBox="0 0 153 150" fill="none" xmlns="http://www.w3.org/2000/svg">
<g filter="url(#filter0_d_106_23)">
<g filter="url(#filter1_d_106_23)">
<ellipse cx="76.5" cy="71" rx="72.5" ry="71" fill="white"/>
</g>
<g clip-path="url(#clip0_106_23)">
<path d="M126.48 95.2138L109.807 112.175C109.444 112.544 109.006 112.837 108.519 113.038C108.031 113.239 107.505 113.342 106.974 113.342H27.9356C27.5585 113.342 27.1896 113.238 26.8742 113.041C26.5588 112.845 26.3107 112.566 26.1604 112.238C26.0101 111.91 25.9641 111.547 26.028 111.195C26.092 110.842 26.2631 110.515 26.5204 110.253L43.2061 93.2921C43.5676 92.9246 44.0047 92.6314 44.4904 92.4307C44.9762 92.23 45.5002 92.126 46.0301 92.1251H125.064C125.441 92.1251 125.81 92.2297 126.126 92.4258C126.441 92.622 126.689 92.9013 126.84 93.2294C126.99 93.5575 127.036 93.92 126.972 94.2726C126.908 94.6251 126.737 94.9523 126.48 95.2138ZM109.807 61.0584C109.444 60.69 109.006 60.3962 108.519 60.1955C108.031 59.9948 107.505 59.8913 106.974 59.8916H27.9356C27.5585 59.8916 27.1896 59.9961 26.8742 60.1923C26.5588 60.3885 26.3107 60.6677 26.1604 60.9957C26.0101 61.3239 25.9641 61.6865 26.028 62.039C26.092 62.3915 26.2631 62.7187 26.5204 62.9803L43.2061 79.9417C43.5676 80.3092 44.0047 80.6022 44.4904 80.803C44.9762 81.0037 45.5002 81.1078 46.0301 81.1086H125.064C125.441 81.1086 125.81 81.0041 126.126 80.8079C126.441 80.6117 126.689 80.3324 126.84 80.0044C126.99 79.6763 127.036 79.3137 126.972 78.9611C126.908 78.6086 126.737 78.2815 126.48 78.0198L109.807 61.0584ZM27.9356 48.875H106.974C107.505 48.8752 108.031 48.7718 108.519 48.571C109.006 48.3703 109.444 48.0765 109.807 47.7081L126.48 30.7467C126.737 30.4851 126.908 30.158 126.972 29.8054C127.036 29.4529 126.99 29.0903 126.84 28.7622C126.689 28.4341 126.441 28.1548 126.126 27.9587C125.81 27.7625 125.441 27.658 125.064 27.658H46.0301C45.5002 27.6588 44.9762 27.7628 44.4904 27.9635C44.0047 28.1643 43.5676 28.4574 43.2061 28.8249L26.5247 45.7863C26.2677 46.0475 26.0966 46.3744 26.0325 46.7265C25.9684 47.0787 26.0141 47.441 26.1639 47.7689C26.3137 48.0969 26.5611 48.3761 26.8758 48.5726C27.1905 48.7691 27.5589 48.8741 27.9356 48.875Z" fill="url(#paint0_linear_106_23)"/>
</g>
</g>
<defs>
<filter id="filter0_d_106_23" x="0" y="0" width="153" height="150" filterUnits="userSpaceOnUse" color-interpolation-filters="sRGB">
<feFlood flood-opacity="0" result="BackgroundImageFix"/>
<feColorMatrix in="SourceAlpha" type="matrix" values="0 0 0 0 0 0 0 0 0 0 0 0 0 0 0 0 0 0 127 0" result="hardAlpha"/>
<feOffset dy="4"/>
<feGaussianBlur stdDeviation="2"/>
<feComposite in2="hardAlpha" operator="out"/>
<feColorMatrix type="matrix" values="0 0 0 0 0 0 0 0 0 0 0 0 0 0 0 0 0 0 0.25 0"/>
<feBlend mode="normal" in2="BackgroundImageFix" result="effect1_dropShadow_106_23"/>
<feBlend mode="normal" in="SourceGraphic" in2="effect1_dropShadow_106_23" result="shape"/>
</filter>
<filter id="filter1_d_106_23" x="0" y="0" width="153" height="150" filterUnits="userSpaceOnUse" color-interpolation-filters="sRGB">
<feFlood flood-opacity="0" result="BackgroundImageFix"/>
<feColorMatrix in="SourceAlpha" type="matrix" values="0 0 0 0 0 0 0 0 0 0 0 0 0 0 0 0 0 0 127 0" result="hardAlpha"/>
<feOffset dy="4"/>
<feGaussianBlur stdDeviation="2"/>
<feComposite in2="hardAlpha" operator="out"/>
<feColorMatrix type="matrix" values="0 0 0 0 0 0 0 0 0 0 0 0 0 0 0 0 0 0 0.25 0"/>
<feBlend mode="normal" in2="BackgroundImageFix" result="effect1_dropShadow_106_23"/>
<feBlend mode="normal" in="SourceGraphic" in2="effect1_dropShadow_106_23" result="shape"/>
</filter>
<linearGradient id="paint0_linear_106_23" x1="34.5256" y1="115.384" x2="112.546" y2="22.6622" gradientUnits="userSpaceOnUse">
<stop offset="0.08" stop-color="#9945FF"/>
<stop offset="0.3" stop-color="#8752F3"/>
<stop offset="0.5" stop-color="#5497D5"/>
<stop offset="0.6" stop-color="#43B4CA"/>
<stop offset="0.72" stop-color="#28E0B9"/>
<stop offset="0.97" stop-color="#19FB9B"/>
</linearGradient>
<clipPath id="clip0_106_23">
<rect width="101" height="85.6842" fill="white" transform="translate(26 27.658)"/>
</clipPath>
</defs>
</svg>
