<svg width="224" height="224" viewBox="0 0 224 224" fill="none" xmlns="http://www.w3.org/2000/svg">
<path d="M215.312 153.076C205.991 137.6 190.382 131.407 176.444 137.674L142.201 153.59C138.852 148.576 131.985 141.04 119.661 143.157L87.3141 149.014C82.6916 149.338 78.5068 147.389 74.0811 145.326C68.9865 142.951 63.7076 140.489 57.2509 141.072L53.6808 141.389V138.825C53.6808 133.588 49.4198 129.327 44.1827 129.327H16.5807C11.3436 129.327 7.0826 133.588 7.0826 138.825V213.018C7.0826 218.257 11.3436 222.518 16.5807 222.518H44.1827C49.1051 222.518 53.1153 218.742 53.5874 213.942L65.6992 212.868C72.7165 212.241 79.6378 214.815 86.96 217.537C93.5617 219.991 100.363 222.516 107.35 222.516C108.164 222.516 108.981 222.481 109.799 222.41C124.667 221.114 158.805 199.721 198.332 174.951C202.838 172.126 207.397 169.269 211.97 166.417C216.531 163.575 218.029 157.59 215.312 153.076ZM44.1827 215.1H16.5807C15.435 215.1 14.5006 214.166 14.5006 213.02V138.825C14.5006 137.679 15.435 136.745 16.5807 136.745H44.1827C45.3285 136.745 46.2628 137.679 46.2628 138.825V142.048V213.018C46.2628 214.166 45.3285 215.1 44.1827 215.1ZM208.044 160.125C203.465 162.982 198.904 165.837 194.393 168.667C157.288 191.917 122.241 213.878 109.145 215.022C102.966 215.575 96.4434 213.148 89.5417 210.584C82.6129 208.009 75.4752 205.356 67.8506 205.356C66.9212 205.356 65.9844 205.396 65.0402 205.479L53.6784 206.487V148.839L57.905 148.463C62.3922 148.067 66.5475 150.005 70.9486 152.05C75.8661 154.345 81.4475 156.936 88.0861 156.398L120.95 150.462C128.073 149.24 132.877 152.06 137.546 160.196L139.238 163.149L139.855 164.226C123.775 173.206 109.912 178.787 97.5695 181.253C95.5607 181.654 94.26 183.606 94.6608 185.617C95.0124 187.38 96.5614 188.6 98.2924 188.6C98.5333 188.6 98.7768 188.578 99.0251 188.529C112.986 185.738 128.604 179.293 146.776 168.831C148.552 167.811 149.161 165.547 148.144 163.774L145.987 160.014L179.522 144.426C189.827 139.791 201.661 144.807 208.951 156.911C209.585 157.949 209.167 159.422 208.044 160.125Z" fill="white"/>
<path d="M127.802 8.64881C155.665 8.64881 178.335 31.3185 178.335 59.181C178.335 87.0436 155.665 109.713 127.802 109.713C99.9398 109.713 77.2701 87.0436 77.2701 59.181C77.2701 31.3185 99.9398 8.64881 127.802 8.64881ZM127.802 1.23077C95.7968 1.23077 69.852 27.1755 69.852 59.181C69.852 91.1866 95.7968 117.131 127.802 117.131C159.808 117.131 185.753 91.1866 185.753 59.181C185.753 27.1755 159.808 1.23077 127.802 1.23077Z" fill="white"/>
<path d="M147.327 69.0357C145.279 69.0357 143.619 70.6954 143.619 72.7435C143.619 75.7481 141.692 78.2831 139.413 78.2831H116.195C113.913 78.2831 111.988 75.7456 111.988 72.7435V45.6161C111.988 42.6115 113.915 40.0766 116.195 40.0766H139.413C141.692 40.0766 143.619 42.614 143.619 45.6161C143.619 47.6643 145.282 49.3239 147.327 49.3239C149.373 49.3239 151.035 47.6643 151.035 45.6161C151.035 38.471 145.82 32.6585 139.413 32.6585H131.513V26.9862C131.513 24.938 129.85 23.2784 127.805 23.2784C125.757 23.2784 124.097 24.938 124.097 26.9862V32.6585H116.197C109.787 32.6585 104.572 38.471 104.572 45.6161V72.7435C104.572 79.8886 109.787 85.7011 116.197 85.7011H124.097V91.3735C124.097 93.4216 125.759 95.0813 127.805 95.0813C129.853 95.0813 131.513 93.4216 131.513 91.3735V85.7011H139.413C145.82 85.7011 151.035 79.8886 151.035 72.7435C151.035 70.6954 149.375 69.0357 147.327 69.0357Z" fill="white"/>
</svg>
